# xmcd CD database file
#
# Track frame offsets:
#	150
#	25433
#	46274
#	68399
#	89686
#	111898
#	127009
#	155758
#	201090
#	225583
#
# Disc length: 3166 seconds
#
# Revision: 0
# Processed by: cddbd v1.5.2PL0 Copyright (c) Steve Scherf et al.
# Submitted via: CDex 1.70beta2
#
DISCID=850c5c0a
DTITLE=B.B. KING - Completely Well
DYEAR=1969
DGENRE=Blues
TTITLE0=So Excited
TTITLE1=No Good
TTITLE2=You're Losin' Me
TTITLE3=What Happened
TTITLE4=Confessin' The Blues
TTITLE5=Key To My Kingdom
TTITLE6=Cryin' Won't Help You Now
TTITLE7=You're Mean
TTITLE8=The Thrill Is Gone
TTITLE9=Fools Get Wise(Bonus)
EXTD=YEAR: 1969
EXTT0=
EXTT1=
EXTT2=
EXTT3=
EXTT4=
EXTT5=
EXTT6=
EXTT7=
EXTT8=
EXTT9=
PLAYORDER=
